<svg width="99" height="96" viewBox="0 0 99 96" fill="none" xmlns="http://www.w3.org/2000/svg">
<path fill-rule="evenodd" clip-rule="evenodd" d="M40.8556 0.714667C21.9919 4.01262 6.43213 17.6438 1.38679 35.2912C-0.117236 40.5528 -0.473142 51.892 0.691857 57.4519C2.70863 67.0789 7.79341 75.7713 15.6041 82.9455C28.566 94.8508 47.1433 98.9959 64.2161 93.7919C89.8061 85.9915 104.497 59.6567 97.0751 34.8885C94.0655 24.845 88.0062 16.2575 79.3853 9.81738C68.6813 1.82094 54.1549 -1.6109 40.8556 0.714667ZM41.9763 4.22237C36.7352 5.05068 30.6301 7.20363 25.7259 9.95379C22.3604 11.841 11.5122 21.6188 11.5122 22.7648C11.5122 23.1609 15.6083 23.333 25.3311 23.3462L39.15 23.3645L43.6937 26.6263L48.2378 29.8886L48.4316 34.8809C48.5384 37.6264 48.5073 46.3957 48.3626 54.3677L48.0993 68.8628L43.1666 72.3135L38.2335 75.7647H25.8096H13.3853L16.7918 79.1064C26.6209 88.7487 40.9041 93.6799 54.3319 92.0661C65.5444 90.7185 74.9059 86.214 82.824 78.357L85.4367 75.7647H74.1057H62.7747L57.6741 72.1674L52.574 68.5701V49.3083V30.046L57.3973 26.6869L62.2199 23.3274H68.1101C73.8504 23.3274 74.0568 23.3671 76.2336 24.8923C77.4623 25.7527 78.5157 26.383 78.5752 26.2924C78.6342 26.2017 78.9625 25.4977 79.3042 24.7274C79.8917 23.4047 80.1155 23.3274 83.3594 23.3274C85.9252 23.3274 86.7923 23.1502 86.7923 22.6258C86.7923 21.5755 80.3487 15.0499 76.6737 12.3782C67.2195 5.50532 53.8085 2.35296 41.9763 4.22237ZM90.4389 29.182C90.4089 29.462 89.872 32.5548 89.2466 36.0549L88.1083 42.4186L82.186 42.5627L76.2636 42.7068V38.8717V35.0367H69.5589H62.8543L64.5489 36.1821C66.0166 37.1744 66.2481 37.6341 66.2792 39.6186C66.2992 40.8786 66.3629 46.1864 66.4203 51.4139C66.5224 60.7055 66.553 60.9473 67.8007 62.2323C68.9309 63.3961 69.4879 63.5463 72.6702 63.5463H76.2636V60.2371V56.928H82.844H89.4244L89.4465 63.1645L89.4686 69.4009L90.4763 67.6191C91.0306 66.6391 92.0745 64.119 92.7963 62.019C96.0786 52.4708 96.0833 43.6461 92.8116 34.0185C91.5155 30.2048 90.5421 28.2208 90.4389 29.182ZM5.77717 34.4273C5.49763 34.9318 4.86704 37.265 4.37535 39.612C3.19772 45.2309 3.5635 54.5301 5.17439 59.9368C6.29201 63.6883 9.67023 70.9654 10.5336 71.4816C10.7821 71.6303 10.9857 63.8716 10.9857 54.2369C10.9857 34.973 11.2347 36.4846 7.71389 34.3682C6.36254 33.5562 6.25727 33.5592 5.77717 34.4273ZM24.7614 35.4113L22.4809 35.6084L23.6212 36.565C24.7383 37.5017 24.7604 37.7863 24.7009 50.5336L24.6399 63.5463H28.2833C31.0844 63.5463 32.2136 63.3217 33.1691 62.5739C34.3978 61.6127 34.4141 61.4722 34.5721 50.383C34.7937 34.8239 34.621 34.5601 24.7614 35.4113Z" fill="white"/>
</svg>
